# xmcd
#
# Track frame offsets: 
#        150
#        27694
#        46047
#        72164
#        82735
#        102461
#        118892
#        131798
#        152410
#        167306
#        180424
#        208363
#        229807
#        250816
#        266796
#        295006
#        315022
#        327548
#
# Disc length: 4779 seconds
#
# Revision: 0
# Processed by: cddbd v1.5.2PL0 Copyright (c) Steve Scherf et al.
# Submitted via: ExactAudioCopy v1.0b3
#
DISCID=f712a912
DTITLE=Various Artist - Songs of LED ZEPPELIN  CD2
DYEAR=2000
DGENRE=Blues
TTITLE0=Great White - In the Light
TTITLE1=Stone Temple Pilots - Dancing Days
TTITLE2=4 Non Blondes - Misty Mountain Hop
TTITLE3=Great White - Immigrant Song
TTITLE4=Sheryl Crow - O'yer Maker
TTITLE5=Big Head Todd and The Monsters - Tangerine
TTITLE6=Great White - Living Loving (She's Just a Women)
TTITLE7=Duran Duran - Thank You
TTITLE8=Blind Melon - Out On the Tiles
TTITLE9=Great White - Tangerine (version2)
TTITLE10=Mana - Fool In the Rain
TTITLE11=Helmet and David Howe - Custard Pie (version3)
TTITLE12=Great White - Ramble On
TTITLE13=Rolling Band - Four Sticks
TTITLE14=Great White - All My Love
TTITLE15=Never The Bridge - Going to California
TTITLE16=Cracker - Good Times Bad Times (version2)
TTITLE17=Great White - When the Levee Breaks (version3)
EXTD=
EXTT0=
EXTT1=
EXTT2=
EXTT3=
EXTT4=
EXTT5=
EXTT6=
EXTT7=
EXTT8=
EXTT9=
EXTT10=
EXTT11=
EXTT12=
EXTT13=
EXTT14=
EXTT15=
EXTT16=
EXTT17=
PLAYORDER=
